<?xml version="1.0" encoding="utf-8"?>
<!-- Generator: Adobe Illustrator 22.1.0, SVG Export Plug-In . SVG Version: 6.00 Build 0)  -->
<svg version="1.1" id="logo_x5F_layer" xmlns="http://www.w3.org/2000/svg" xmlns:xlink="http://www.w3.org/1999/xlink" x="0px"
	 y="0px" viewBox="0 0 335.3 308.1" style="enable-background:new 0 0 335.3 308.1;" xml:space="preserve">
<style type="text/css">
	.st0{fill:#F7F7FF;}
</style>
<g id="logo_x5F_layer_1_">
	<g>
		<g id="logo_x5F_group_9_">
			<g>
				<path id="arc_x5F_small_9_" class="st0" d="M103.8,107.3c13.1-20.9,36.3-34.7,63-34.7c26.7,0,49.9,13.9,63.1,34.8l9-5.6
					c-15-24-41.6-39.8-72.1-39.8c-30.4,0-57,15.8-72,39.7L103.8,107.3L103.8,107.3L103.8,107.3z"/>
				<path id="arc_x5F_big_9_" class="st0" d="M275.2,146.4c-3.2-0.8-10.7-2.2-10.7-2.2c-1.5-52.5-44.8-95-97.7-95.1
					c-52.9,0.1-96.2,42.6-97.7,95.1c0,0-7.4,1.4-10.7,2.3c0.2-59.5,48.8-108,108.4-108C226.3,38.5,274.9,86.9,275.2,146.4z"/>
				<path id="left_x5F_brace_9_" class="st0" d="M100,263.9l-12.4,2c-4.1,0.6-7.7,1-11,1c-6.1,0-11.1-1-14.7-4.4
					c-4-4.1-5.5-10.5-7.3-20.7c-1-5.7-3-8.6-6.4-10.4c-2.3-1.2-5.4-2-9.6-1.9c-2.3,0-4.9,0.2-7.7,0.7l-4.2,0.7l-2.7-17.2l4.2-0.7
					c14.5-2.6,19.1-7.3,19.2-15.2c0-1-0.1-2.1-0.3-3.3c-0.8-5-1.2-9.1-1.2-12.6c0-3.6,0.3-6.5,1.7-9.2c3.9-6.6,11.8-9.3,23.4-11.3
					l12.4-2l2.5,15.8l-9.8,1.6c-3.6,0.6-6.4,1.2-8.3,1.9c-1.8,0.6-2.8,1.3-3.3,1.9c-0.5,0.6-0.7,1.1-0.8,2.2c0,0.4,0,0.8,0,1.2
					c0,1.3,0.1,2.9,0.4,4.7c0.7,4.3,1,8.1,1,11.3c0,2.9-0.3,5.4-1.1,7.6c-1.4,3.8-3.9,7-7.5,9.9c4.8,1.9,8.7,4.7,11.2,8.6l0,0v0
					c2.3,3.9,3.7,9.8,5.2,19.4c0.3,2,0.7,3.4,1.1,4.2c0.3,0.6,0.5,0.8,0.8,1c0.4,0.2,1.4,0.5,2.9,0.5h0.3c1.6,0,3.9-0.2,6.6-0.6
					l8.4-1.3l4.2-0.7L100,263.9z"/>
				<path id="right_x5F_brace_9_" class="st0" d="M310,213.6l-2.7,17.2l-4.2-0.7c-2.9-0.4-5.5-0.7-7.7-0.7c-4.2,0-7.3,0.7-9.6,1.9
					c-3.4,1.8-5.5,4.7-6.4,10.5c-1.7,10.1-3.3,16.5-7.4,20.6c0,0,0,0,0,0c-3.6,3.3-8.6,4.3-14.6,4.4c-3.3,0-6.9-0.3-10.9-1l-12.4-2
					l2.5-15.7l9.9,1.6c3.2,0.5,5.8,0.7,7.7,0.7h0.4c1.9,0,3.1-0.4,3.7-0.7c0.6-0.4,1.1-0.8,1.6-1.9c0.6-1.2,1.1-3.2,1.5-5.7
					c1.4-8.3,2.9-14,5.8-18c2.4-3.2,5.9-5.5,10.2-7.1c-4-3.3-6.8-7.1-8-11.6l0,0v0c-0.3-1.4-0.4-2.7-0.4-4.3c0-1.2,0.1-2.4,0.2-3.7
					c0.3-3.2,0.8-7.1,1.5-11.9v0c0.2-1.2,0.3-2.3,0.3-3.1c0-0.4,0-0.8-0.1-1.1c-0.1-0.7-0.2-0.9-0.6-1.3c-0.3-0.3-1.1-0.9-2.6-1.4
					c-1.6-0.5-3.9-1.1-6.9-1.6l-12.6-2l2.5-15.8l12.4,2c11.4,1.9,19.4,4.7,23.3,11.3c1.4,2.7,1.8,5.8,1.8,9.5
					c0,3.5-0.4,7.6-1.2,12.5c-0.2,1.2-0.3,2.3-0.3,3.4c0,3.8,1.1,6.3,3.2,8.5c2.7,2.8,8,5.3,16.1,6.6L310,213.6z"/>
			</g>
		</g>
	</g>
</g>
</svg>
